<svg width="146" height="78" viewBox="0 0 146 78" fill="none" xmlns="http://www.w3.org/2000/svg">
<g filter="url(#filter0_d)">
<path d="M142 0H4L63.51 65.68C68.73 71.441 77.27 71.441 82.49 65.68L142 0Z" fill="#81B3D3"/>
<path d="M40.687 0.457L72.835 38.336L104.855 0.686L40.687 0.457Z" fill="#23A9E1"/>
<path fill-rule="evenodd" clip-rule="evenodd" d="M82.42 14.719H65.1C64.8194 14.5918 64.4384 14.4492 64.012 14.2896C61.8142 13.467 58.4115 12.1934 61.347 10.252C62.8166 9.31859 63.8717 9.46836 64.869 9.60993C65.9583 9.76457 66.9786 9.90941 68.395 8.622C70.9745 6.28128 74.6699 9.9095 75.9353 11.1519C76.196 11.4079 76.3536 11.5626 76.377 11.543C77.6265 10.5022 79.6307 12.3043 81.1108 13.6352C81.6301 14.1022 82.0849 14.5112 82.42 14.719ZM91.83 11.241L81.97 11.295C85.866 6.795 87.617 7.277 91.83 11.241Z" fill="white"/>
<path fill-rule="evenodd" clip-rule="evenodd" d="M40 0.001H73.055L106 0V15.04L73.056 54.245L72.836 54.52L40 14.583V0.001ZM44.011 1.153V3.06L42.407 1.154L44.011 1.153ZM101.622 1.154V3.588L103.702 1.154H101.622ZM52.467 13.081L52.377 12.998L53.1963 13.9714L53.196 13.972L72.834 37.302L53.1963 13.9714C55.8513 9.42894 59.6532 8.74921 63.743 13.664C64.397 14.4815 64.7938 15.2248 65.112 15.8208C65.5626 16.6649 65.8556 17.2137 66.498 17.26C67.6367 17.3414 68.1967 16.5858 68.7536 15.8344C69.1958 15.2376 69.6362 14.6434 70.363 14.473C71.7842 14.139 72.4388 14.4977 73.0817 14.85C73.2856 14.9618 73.4884 15.0729 73.714 15.161C73.9962 15.2714 74.2599 15.3412 74.504 15.4058C75.131 15.5718 75.6286 15.7035 75.977 16.401C76.0931 16.633 76.1901 16.8652 76.2848 17.0919C76.7047 18.0974 77.0797 18.9953 78.879 19.294C81.4273 19.718 83.5817 18.7657 85.8233 17.7747C87.4303 17.0644 89.0821 16.3342 90.956 16.077L93.471 13.132C93.366 13.022 91.004 10.592 87.339 8.182C83.91 5.927 78.611 3.233 72.833 3.205C67.042 3.173 61.817 5.858 58.45 8.117C54.9069 10.4943 52.6345 12.9034 52.4757 13.0718L52.467 13.081ZM101.114 1.153H97.887V7.96L101.114 4.183V1.153ZM93.832 12.61V1.154H97.378V8.558L93.878 12.656C93.8632 12.6402 93.8478 12.6248 93.832 12.61ZM93.324 12.115V2.221L89.767 9.129C91.0081 10.0564 92.1956 11.0533 93.324 12.115ZM89.159 1.863V8.682C88.696 8.348 88.209 8.009 87.694 7.67C87.03 7.232 86.294 6.778 85.5 6.33L89.159 1.863ZM84.847 5.97V1.73L81.727 4.496C82.7921 4.9323 83.8336 5.42431 84.847 5.97ZM85.355 1.154H89.082L85.355 5.704V1.154ZM93.3 1.154H89.667L89.666 8.214L93.3 1.154ZM80.87 1.154H84.73L81.2 4.282C81.1346 4.2568 81.0681 4.23268 81.0017 4.20857C80.9573 4.19248 80.913 4.1764 80.869 4.16V1.154H80.87ZM80.361 3.974V1.571L77.261 3.087C78.3117 3.31806 79.3471 3.6143 80.361 3.974ZM76.158 1.613V2.873C75.4364 2.75191 74.7092 2.6678 73.979 2.621L76.158 1.613ZM71.64 2.616L69.392 1.574V2.869C70.128 2.746 70.878 2.659 71.64 2.616ZM65.272 1.571L68.337 3.069C67.277 3.298 66.254 3.597 65.271 3.944L65.272 1.571ZM65.578 1.154L68.882 2.771L68.883 1.154H65.578ZM72.448 2.429L69.694 1.154H72.448V2.429ZM75.938 1.154H73.057V2.488L75.938 1.154ZM76.816 1.154H80.056L76.816 2.738V1.154ZM60.895 1.155L64.405 4.265L64.764 4.13V1.155H60.895ZM60.787 1.738L63.88 4.479C62.8227 4.91873 61.7902 5.4158 60.787 5.968V1.738ZM60.115 6.346L56.475 1.866V8.756C57.6383 7.87955 58.8539 7.07473 60.115 6.346ZM52.31 2.224L55.896 9.198C54.6354 10.1717 53.4377 11.2241 52.31 12.349V2.224ZM52.332 1.154L55.966 8.224V1.154H52.332ZM60.278 5.739L56.552 1.154H60.278V5.739ZM44.52 3.664L47.747 7.497V1.154H44.52V3.664ZM48.255 1.154H51.8V12.314L48.254 8.102L48.255 1.154Z" fill="#491213"/>
<path d="M70.227 46.026L72.837 41.806L75.435 46.026L72.837 50.256L70.227 46.026Z" fill="#23A9E1"/>
<path fill-rule="evenodd" clip-rule="evenodd" d="M56.88 11.718C55.097 12.272 53.999 14.73 56.623 14.839H56.624C56.516 13.171 56.99 12.465 57.136 14.491C57.5687 14.471 58.0179 14.4591 58.4747 14.4469C60.1166 14.4034 61.8555 14.3572 63.27 13.923C62.13 12.832 58.575 11.19 56.88 11.718ZM62.793 22.985C57.197 22.939 60.98 14.337 62.884 14.857C65.074 15.553 64.828 23.051 62.793 22.985ZM65.333 20.13C65.223 22.102 66.211 21.799 66.756 20.175V20.174C66.7593 20.5328 66.7199 20.8944 66.6814 21.2468C66.5793 22.1831 66.4841 23.0555 67.215 23.644C68.539 24.713 71.08 23.247 71.911 22.152C70.314 21.532 72.259 17.765 73.457 17.191C72.225 19.772 70.805 23.617 74.025 23.617C72.393 23.617 75.327 16.871 75.343 16.925C75.1569 16.3081 74.6943 16.2415 74.1421 16.162C73.7329 16.1032 73.2746 16.0372 72.843 15.735C71.2609 14.6278 70.4343 15.5809 69.6311 16.507C69.2809 16.9108 68.9351 17.3095 68.533 17.53C68.0529 17.7928 67.5826 17.9267 67.1565 18.048C66.1706 18.3288 65.421 18.5422 65.333 20.13ZM78.218 30.556C74.785 28.536 75.654 27.033 78.448 25.631C78.8082 25.4501 79.2795 25.1532 79.806 24.8216C81.4161 23.8072 83.5418 22.4681 84.581 23.132L78.218 30.556ZM74.6742 33.0045L74.6739 33.0045C72.9673 32.8993 71.1802 32.7893 69.622 33.128C70.829 33.43 73.773 34.293 71.032 35.022C72.015 36.429 73.61 36.339 74.656 35.104C74.4001 34.9781 74.2149 34.8349 74.0312 34.6928L74.0311 34.6928C73.9098 34.5989 73.789 34.5055 73.649 34.418C74.734 34.222 75.749 33.596 75.884 33.073C75.4882 33.0546 75.0835 33.0297 74.6742 33.0045ZM74.373 31.499C75.242 30.659 76.186 30.703 77.119 31.499H77.118C76.644 32.881 68.059 32.393 66.994 29.779C67.5184 29.8582 68.2011 29.8662 68.9431 29.8748C71.0017 29.8989 73.5167 29.9282 74.373 31.499ZM70.345 29.348C69.8943 29.2083 69.136 29.1189 68.367 29.0283C66.4656 28.8041 64.4991 28.5722 66.957 27.554C68.022 27.113 73.55 27.617 70.345 29.348ZM72.257 26.318C71.78 25.241 72.622 23.958 73.997 24.89C75.196 25.703 73.445 26.907 72.257 26.318ZM69.421 26.409C67.156 27.088 64.148 25.625 67.791 24.889C70.052 24.433 72.457 25.395 69.421 26.409Z" fill="#DC6243"/>
<path d="M75.774 25.832C72.866 22.845 80.116 23.12 81.284 22.069C82.134 22.353 88.274 16.692 89.769 17.044C88.695 18.304 86.381 22.326 84.722 22.326C83.447 22.326 82.157 22.136 81.17 23.044C79.726 24.374 77.333 25.05 75.774 25.832Z" fill="#F49774"/>
<path d="M76.727 22.18C75.135 23.036 73.629 19.644 76.378 19.974C78.204 20.194 80.054 19.82 81.798 20.121C80.547 21.608 78.742 22.427 76.727 22.18Z" fill="#F4B1A4"/>
<path fill-rule="evenodd" clip-rule="evenodd" d="M43.265 14.483C43.626 15.702 44.849 16.149 45.996 15.809C46.0322 15.8493 46.0549 15.9116 46.0762 15.9699L46.0762 15.9699C46.086 15.997 46.0956 16.0232 46.106 16.046C46.0064 16.0843 45.8223 16.1636 45.6023 16.2585L45.6022 16.2585L45.6022 16.2585L45.6022 16.2585L45.6022 16.2585C44.9896 16.5225 44.0981 16.9066 43.973 16.861C43.7561 16.4283 43.4148 16.1086 43.0713 15.7869C42.8321 15.5628 42.5919 15.3378 42.392 15.073C41.826 14.325 41.495 13.422 41.584 12.476C41.726 10.731 43.482 8.807 45.346 9.071C46.266 9.204 47.034 9.858 47.606 10.554C47.7685 10.7433 47.9097 10.9418 48.0491 11.1377C48.3457 11.5544 48.6337 11.9591 49.099 12.238C48.541 12.95 47.983 13.66 47.423 14.371C47.0925 14.2249 47.193 13.997 47.3028 13.7479C47.3336 13.6781 47.3651 13.6067 47.388 13.535C47.551 13.018 47.673 12.43 47.449 11.91C46.939 10.736 45.544 10.696 44.609 11.366C43.663 12.044 42.912 13.292 43.265 14.483ZM51.69 16.404C51.8067 16.3788 51.8955 16.4207 51.9743 16.458C52.0894 16.5123 52.1833 16.5567 52.312 16.368L50.722 14.474C50.481 14.187 50.176 13.879 50.263 14.486C50.321 14.895 46.294 18.163 46.048 18.264C45.9132 18.3197 45.8026 18.2758 45.7018 18.2359C45.571 18.1841 45.4568 18.1388 45.328 18.327C45.5289 18.5655 45.7294 18.8042 45.9299 19.0429L45.9303 19.0433L45.9317 19.0451L45.9323 19.0457L45.9331 19.0467L45.9332 19.0468L45.9333 19.0469L45.9334 19.0471L45.9335 19.0472L45.9337 19.0473L45.9338 19.0475L45.9339 19.0476L45.9343 19.0481L45.9344 19.0483L45.9345 19.0484L45.9346 19.0485L45.9348 19.0487L45.9349 19.0488C46.2069 19.3726 46.479 19.6965 46.752 20.02C46.8035 20.0812 46.8539 20.1441 46.9044 20.2072C47.0108 20.3401 47.1177 20.4737 47.237 20.593C47.4258 20.7818 47.39 20.3246 47.3823 20.2273L47.3823 20.2273L47.3823 20.2272C47.3811 20.2112 47.3806 20.2049 47.382 20.213C47.3286 19.9168 47.6408 19.6601 47.8604 19.4796L47.8604 19.4796C47.8877 19.4572 47.9135 19.436 47.937 19.416C48.941 18.532 51.442 16.437 51.69 16.404ZM55.113 20.935C55.446 21.336 55.691 21.769 55.636 22.309C55.6231 22.4367 55.5485 22.5942 55.4729 22.7539C55.3265 23.063 55.1762 23.3804 55.461 23.507L56.916 21.667C56.526 21.569 53.434 17.871 53.384 17.466L51.333 18.592C51.403 18.8751 51.7464 18.7859 52.0762 18.7002C52.2462 18.656 52.4125 18.6128 52.536 18.622C53.074 18.66 53.462 18.985 53.804 19.369C53.6985 19.4576 53.5786 19.5584 53.4479 19.6684L53.4436 19.672L53.4431 19.6724L53.443 19.6725L53.4429 19.6725C52.1852 20.7305 49.9265 22.6306 49.666 22.674C49.6181 22.6816 49.5255 22.6421 49.4224 22.5982C49.2117 22.5083 48.9574 22.3999 48.952 22.637C48.9491 22.7623 49.2509 23.0609 49.4523 23.2601L49.4523 23.2601L49.4524 23.2602C49.5242 23.3312 49.5832 23.3896 49.611 23.423L51.058 25.145C51.2779 25.0447 51.235 24.9115 51.1852 24.757C51.1441 24.6297 51.0984 24.4879 51.191 24.338C51.3101 24.145 53.2458 22.512 54.409 21.5306L54.409 21.5305L54.4091 21.5305L54.4097 21.53C54.7111 21.2757 54.9605 21.0653 55.113 20.935ZM68.9615 36.5156L68.9615 36.5156L68.9614 36.5154C68.7668 36.2637 68.6168 36.0697 68.539 35.977L68.326 35.724C68.319 35.714 68.141 35.869 68.166 35.848C68.1126 35.8928 68.1297 35.9795 68.1492 36.0783C68.1705 36.1867 68.1948 36.3097 68.132 36.408C67.617 37.214 64.394 39.644 64.227 39.76C64.0532 39.8807 63.871 39.8608 63.7053 39.8428C63.5278 39.8235 63.3692 39.8062 63.26 39.966C63.3991 40.131 63.6154 40.4017 63.8547 40.7012L63.8548 40.7012C64.419 41.4073 65.1112 42.2734 65.22 42.291C65.437 42.3259 65.3979 42.0542 65.3681 41.8463C65.3551 41.7561 65.3439 41.678 65.356 41.642C65.4312 41.4165 66.8751 40.2125 67.5418 39.6566L67.66 39.558C67.8457 39.4021 68.0394 39.7121 68.1731 39.9261L68.1731 39.9261C68.1963 39.9633 68.2178 39.9976 68.237 40.026C68.449 40.341 68.544 40.676 68.43 41.045C68.4077 41.1163 68.3576 41.198 68.3061 41.2819C68.1844 41.4802 68.0551 41.691 68.268 41.807C68.4389 41.6072 68.7415 41.2542 69.0455 40.8996L69.052 40.8919L69.0552 40.8882L69.06 40.8827C69.4663 40.4087 69.8714 39.9361 69.964 39.827C70.0849 39.6869 69.8281 39.7409 69.71 39.7657L69.71 39.7657L69.7099 39.7657C69.6679 39.7745 69.6435 39.7797 69.66 39.771C69.42 39.895 69.194 39.924 68.97 39.753C68.907 39.706 68.263 39.051 68.327 38.996C68.3925 38.941 68.4615 38.8775 68.5334 38.8114C68.7685 38.595 69.0345 38.3502 69.311 38.282C69.871 38.144 70.338 39.266 70.421 39.664C70.499 40.039 70.488 40.434 70.371 40.8C70.3509 40.8631 70.321 40.9229 70.2926 40.9797C70.208 41.1489 70.1374 41.2902 70.383 41.404L71.766 39.508C71.6757 39.5126 71.586 39.4907 71.508 39.445C70.9243 39.0551 69.6574 37.416 68.9615 36.5156ZM60.304 31.317C60.8592 30.8446 61.5533 30.5662 62.281 30.524C63.439 30.458 64.613 30.988 65.371 31.998C66.483 33.482 66.301 35.559 64.871 36.764C63.186 37.965 61.104 37.772 59.812 36.07C58.688 34.592 58.874 32.52 60.304 31.317ZM63.471 31.91C64.42 31.802 64.974 32.709 64.57 33.678C64.15 34.658 63.14 35.667 62.146 36.058C60.966 36.523 60.135 35.521 60.615 34.401C61.037 33.417 62.045 32.418 63.041 32.021C63.191 31.962 63.335 31.926 63.471 31.911V31.91ZM60.9743 27.3709C60.8816 27.3321 60.7855 27.292 60.688 27.28V27.279C59.9923 27.1958 59.2093 27.3412 58.4705 27.4784H58.4705L58.4705 27.4784C58.1877 27.5309 57.9114 27.5822 57.649 27.619C57.002 27.71 55.477 29.195 55.379 29.475C55.3685 29.5138 55.3897 29.6015 55.414 29.7024C55.4687 29.929 55.5395 30.2225 55.305 30.181C55.2258 30.1662 55.0359 29.9081 54.9094 29.7361L54.9093 29.736L54.9092 29.7359C54.8649 29.6756 54.8283 29.6259 54.807 29.601L53.19 27.681C53.3333 27.4781 53.4542 27.5471 53.5938 27.6268C53.7046 27.69 53.8271 27.76 53.982 27.706C54.2482 27.6126 55.1602 26.8353 55.5918 26.4675L55.5922 26.4671L55.5944 26.4652C55.6513 26.4168 55.6997 26.3755 55.737 26.344C56.2908 25.8782 56.7777 24.171 56.9369 23.6127C56.9623 23.5238 56.9793 23.464 56.987 23.443C57.048 23.273 57.069 22.298 57.045 22.318C57.2556 22.1443 57.4 22.3575 57.5464 22.5735C57.5905 22.6386 57.6347 22.7039 57.681 22.759L59.461 24.871C59.3288 25.0609 59.2068 25.0053 59.072 24.944C58.9428 24.8852 58.8018 24.821 58.629 24.963C58.4704 25.0939 58.0892 26.1921 57.9162 26.6903L57.877 26.803C57.9153 26.7962 57.9636 26.788 58.0199 26.7784L58.02 26.7784C58.5525 26.6876 59.7961 26.4755 59.939 26.225C60.0064 26.1066 59.967 26.0054 59.9317 25.9146C59.8853 25.7952 59.8458 25.6938 60.065 25.595L61.512 27.307C61.3596 27.5318 61.1746 27.4545 60.9743 27.3709ZM84.927 34.049C85.051 34.47 85.121 34.914 85.067 35.354C84.997 35.92 84.431 37.252 83.656 36.873C83.1216 36.6107 82.6342 36.1625 82.1677 35.7336C81.9707 35.5525 81.7775 35.3748 81.586 35.216C82.106 34.608 82.564 34.081 83.439 34.376C83.679 34.456 83.885 34.352 83.633 34.206C83.5831 34.1769 83.4791 34.1129 83.3429 34.0289C82.7618 33.6707 81.593 32.9503 81.516 33.037C81.4365 33.1288 81.5001 33.2537 81.5744 33.3995C81.6636 33.5745 81.7681 33.7796 81.659 33.994C81.5442 34.2189 81.3693 34.4198 81.199 34.6153C81.1498 34.6718 81.1009 34.7279 81.054 34.784C80.9858 34.7264 80.9108 34.6683 80.8343 34.609L80.8341 34.6089L80.834 34.6087C80.3872 34.2624 79.8884 33.8757 80.369 33.32C80.721 32.892 81.18 32.56 81.73 32.45C81.8595 32.4236 82.0457 32.447 82.2374 32.471C82.5907 32.5153 82.9627 32.562 83.032 32.304C82.609 32.1 82.186 31.8971 81.763 31.6942C81.481 31.5589 81.199 31.4236 80.917 31.288C81.0094 31.7056 79.5517 33.3469 78.711 34.2935C78.505 34.5255 78.336 34.7157 78.236 34.836C78.2166 34.859 78.1781 34.8971 78.1317 34.943C78.001 35.0721 77.808 35.263 77.805 35.353C77.7996 35.6048 78.1345 35.4514 78.2156 35.4142L78.2157 35.4142C78.2241 35.4104 78.2298 35.4078 78.232 35.407C78.547 35.291 82.656 38.724 82.758 38.959C82.7887 39.045 82.7582 39.1331 82.7306 39.2128C82.6998 39.3017 82.6726 39.3802 82.738 39.434C82.7377 39.4337 82.7378 39.4338 82.7384 39.4344L82.7409 39.4366C82.7623 39.4563 82.8878 39.5719 82.903 39.554C82.9454 39.5031 83.0561 39.3602 83.2135 39.1569L83.2135 39.1569L83.2136 39.1568C83.9956 38.1472 85.9317 35.6478 86.392 35.518C85.875 34.7304 85.3627 33.9397 84.855 33.146C84.5683 33.2718 84.7035 33.5544 84.8253 33.8089C84.8662 33.8945 84.9056 33.9768 84.927 34.049ZM77.2113 39.2409C77.9324 38.7948 79.7731 37.6562 80.927 38.401C82.059 39.343 81.812 40.881 81.059 41.981C80.698 42.506 80.242 42.945 79.765 43.364L79.7338 43.3902C79.3836 43.6836 79.1251 43.9001 79.059 44.379L76.799 42.732C76.9116 42.4365 77.1371 42.5631 77.3597 42.688C77.4415 42.7339 77.5228 42.7796 77.598 42.804C77.989 42.933 78.414 42.969 78.814 42.863C79.498 42.681 80.191 42.04 80.374 41.344C80.602 40.479 79.753 40.217 79.107 40.52C78.796 40.6659 78.4992 40.8614 78.2066 41.0541C78.0899 41.131 77.974 41.2073 77.858 41.28C77.205 41.687 76.437 41.995 75.7 41.611C75.052 41.275 74.611 40.621 74.611 39.885C74.611 39.088 75.064 38.39 75.598 37.835C75.7222 37.7064 75.8723 37.5799 76.0268 37.4497C76.4297 37.1102 76.8629 36.7451 76.946 36.25C77.501 36.626 78.056 37.001 78.613 37.376C78.7051 37.4389 78.6888 37.46 78.6383 37.5256L78.6383 37.5257C78.623 37.5456 78.6045 37.5695 78.585 37.6C78.5378 37.6738 78.2147 37.6375 77.9506 37.6079L77.9505 37.6079C77.8174 37.5929 77.6993 37.5796 77.639 37.583C77.043 37.619 76.443 37.88 76.139 38.42C75.789 39.042 76.276 39.714 76.951 39.395C77.0004 39.3714 77.09 39.316 77.2113 39.2409ZM98.544 10.336C98.5089 10.352 98.4786 10.3768 98.456 10.408L97.666 11.358L96.852 12.34C96.824 12.3741 96.7956 12.405 96.7692 12.4337L96.7691 12.4338C96.6376 12.577 96.5572 12.6646 96.827 12.807C97.37 12.535 100.345 17.575 100.079 18.299C99.609 18.543 95.589 15.016 95.481 14.783C95.4717 14.7561 95.4819 14.6911 95.4943 14.613C95.5255 14.4159 95.5699 14.1349 95.345 14.17C95.2346 14.187 95.0221 14.4988 94.8812 14.7056L94.8812 14.7057L94.8811 14.7057L94.881 14.706C94.8318 14.7782 94.7913 14.8375 94.767 14.867L94.19 15.562C94.3209 15.7528 94.4165 15.7077 94.5354 15.6515C94.6127 15.615 94.6999 15.5738 94.813 15.59C95.0411 15.6358 95.8569 16.3229 96.1904 16.6039L96.1905 16.6039L96.1905 16.604L96.1906 16.604L96.269 16.67C96.1125 16.6757 95.8669 16.6871 95.6029 16.6994C95.0743 16.724 94.4721 16.752 94.364 16.744C94.0282 16.7858 93.987 16.6382 93.9405 16.4717C93.9059 16.3477 93.8684 16.2133 93.704 16.139L92.226 17.934L91.366 18.977C91.3619 18.982 91.3583 18.986 91.3553 18.9895C91.3476 18.9982 91.3438 19.0025 91.3443 19.0063C91.3447 19.0101 91.3494 19.0134 91.3588 19.0198C91.3675 19.0258 91.3801 19.0346 91.397 19.049C91.4271 19.0737 91.45 19.0937 91.4682 19.1094C91.5079 19.1439 91.5242 19.1581 91.5406 19.1581C91.5521 19.158 91.5636 19.151 91.5831 19.1389C91.6139 19.1199 91.6647 19.0886 91.767 19.053C92.095 18.938 96.023 22.253 96.165 22.422C96.2768 22.5552 96.2658 22.6986 96.2557 22.8303C96.2436 22.9874 96.2329 23.128 96.433 23.215L97.601 21.797C97.6136 21.7817 97.6249 21.7699 97.6342 21.7602C97.6687 21.7244 97.6754 21.7174 97.614 21.667C97.4611 21.5411 97.3828 21.5963 97.286 21.6646C97.2075 21.72 97.1167 21.784 96.964 21.767C96.6647 21.7177 94.7465 20.1176 93.6045 19.165L93.6033 19.164L93.599 19.1604L93.5975 19.1592L93.5914 19.1541C93.4186 19.01 93.264 18.881 93.136 18.775L98.458 18.578C98.653 18.571 99.198 19.159 99.153 19.368C99.1371 19.4427 99.1027 19.5055 99.0723 19.5611C99.0033 19.6871 98.9545 19.7761 99.187 19.883C99.3104 19.7346 99.4366 19.5866 99.563 19.4383L99.563 19.4382L99.5631 19.4382L99.5632 19.4381L99.5633 19.438L99.5633 19.4379C99.7555 19.2125 99.9481 18.9865 100.132 18.758L100.28 18.574C100.338 18.5279 100.384 18.469 100.415 18.402L100.525 18.265C100.552 18.2347 100.584 18.1982 100.62 18.1568L100.623 18.1541L100.623 18.1539C100.967 17.7646 101.683 16.9528 101.587 16.869C101.447 16.7477 101.341 16.8053 101.226 16.8671C101.096 16.9377 100.955 17.0138 100.743 16.834C100.538 16.6867 100.05 15.8484 99.8567 15.5155L99.808 15.432C99.6546 15.1715 100.089 14.9117 100.348 14.7565C100.379 14.7378 100.408 14.7205 100.433 14.705C100.937 14.392 102.54 13.938 102.693 14.932C102.704 15.004 102.672 15.0803 102.643 15.1518C102.604 15.2461 102.569 15.3321 102.638 15.389C102.643 15.3935 102.651 15.402 102.661 15.4123C102.704 15.4564 102.779 15.5353 102.814 15.494L104.956 12.918C104.936 12.9011 104.915 12.8799 104.893 12.8581C104.847 12.8115 104.797 12.7617 104.746 12.742C104.272 13.215 99.28 11.222 98.916 10.947C98.8397 10.9167 98.793 10.7721 98.7473 10.6306C98.6936 10.4644 98.6413 10.3025 98.544 10.336ZM100.606 13.849C99.845 13.527 99.083 13.207 98.319 12.889L99.335 14.637C99.5237 14.4503 99.7319 14.2843 99.956 14.142H99.958C100.159 14.015 100.376 13.913 100.606 13.849ZM91.731 20.642C90.624 20.566 89.501 21.052 88.708 21.959C87.473 23.459 87.596 25.637 89.101 26.904C90.619 28.154 92.781 27.836 94.017 26.354C95.249 24.858 95.164 22.674 93.632 21.42C93.0974 20.9654 92.4319 20.6928 91.732 20.642H91.731ZM92.024 22.904C91.592 22.615 90.904 22.239 90.282 22.201C89.909 22.178 89.559 22.278 89.302 22.592C88.487 23.588 89.764 24.718 90.509 25.256C91.253 25.793 92.633 26.57 93.433 25.73C93.4395 25.7245 93.4455 25.7185 93.451 25.712C93.584 25.545 93.549 25.584 93.501 25.642C94.238 24.591 92.804 23.425 92.024 22.904ZM87.155 26.481C85.941 26.414 84.752 26.977 83.856 28.057C83.3323 28.6859 82.81 29.3161 82.2879 29.9461L81.934 30.373C82.0575 30.5528 82.1923 30.515 82.3428 30.4729C82.4702 30.4372 82.6088 30.3984 82.761 30.486C83.044 30.649 86.814 33.798 86.876 33.971C86.9225 34.1012 86.8965 34.1856 86.8745 34.2573C86.8463 34.3491 86.8245 34.4199 86.97 34.539C87.081 34.632 89.914 31.134 90.173 30.519C90.621 29.38 90.264 28.132 89.353 27.344C89.426 27.404 89.53 27.489 89.311 27.307C88.621 26.789 87.884 26.52 87.155 26.48V26.481ZM86.368 28.098C86.286 28.077 86.197 28.064 86.102 28.061V28.06C85.441 28.035 84.52 28.418 84.045 28.939C83.886 29.114 87.867 32.338 88.065 32.148C88.2477 31.9726 88.3215 31.9091 88.3621 31.8742C88.411 31.8321 88.4117 31.8315 88.497 31.726C89.752 30.213 87.79 28.461 86.368 28.098Z" fill="white"/>
</g>
<defs>
<filter id="filter0_d" x="0" y="0" width="146" height="78.0007" filterUnits="userSpaceOnUse" color-interpolation-filters="sRGB">
<feFlood flood-opacity="0" result="BackgroundImageFix"/>
<feColorMatrix in="SourceAlpha" type="matrix" values="0 0 0 0 0 0 0 0 0 0 0 0 0 0 0 0 0 0 127 0"/>
<feOffset dy="4"/>
<feGaussianBlur stdDeviation="2"/>
<feColorMatrix type="matrix" values="0 0 0 0 0 0 0 0 0 0 0 0 0 0 0 0 0 0 0.25 0"/>
<feBlend mode="normal" in2="BackgroundImageFix" result="effect1_dropShadow"/>
<feBlend mode="normal" in="SourceGraphic" in2="effect1_dropShadow" result="shape"/>
</filter>
</defs>
</svg>
